# xmcd CD database file
#
# Track frame offsets:
#	150
#	13945
#	25771
#	38586
#	49703
#	62404
#	74722
#	89348
#	101520
#	113167
#	123352
#	135868
#	148978
#	161114
#	174204
#	187931
#
# Disc length: 2691 seconds
#
# Revision: 1
# Processed by: cddbd v1.5.2PL0 Copyright (c) Steve Scherf et al.
# Submitted via: CDex 1.70beta2
#
DISCID=d30a8110
DTITLE=Nat King Cole - Nat King Cole Sings and Plays [CD2)
DYEAR=1999
DGENRE=Jazz
TTITLE0=If I had you
TTITLE1=Love nest
TTITLE2=Dream a little dream of me
TTITLE3=Little girl
TTITLE4=I'll never be the same
TTITLE5=Naughty Angeline
TTITLE6=These foolish things
TTITLE7=Put 'em in a box, tie 'em with a ribbon (and throw 'em in the deep blue sea)
TTITLE8=Blue and sentimentel
TTITLE9=Lulubelle
TTITLE10=I've got a way with woman
TTITLE11=I'm gonna spank my heart
TTITLE12=I feel so smootchie
TTITLE13=Money is honey
TTITLE14=Lillette
TTITLE15=Now he tells me
EXTD=YEAR: 1999
EXTT0=
EXTT1=
EXTT2=
EXTT3=
EXTT4=
EXTT5=
EXTT6=
EXTT7=
EXTT8=
EXTT9=
EXTT10=
EXTT11=
EXTT12=
EXTT13=
EXTT14=
EXTT15=
PLAYORDER=
